<?xml version="1.0" encoding="UTF-8"?>
<svg id="Layer_1" xmlns="http://www.w3.org/2000/svg" version="1.1" viewBox="0 0 64 64">
  <!-- Generator: Adobe Illustrator 29.8.2, SVG Export Plug-In . SVG Version: 2.1.1 Build 3)  -->
  <defs>
    <style>
      .st0 {
        fill: #fff;
      }
    </style>
  </defs>
  <rect y="0" width="64" height="64"/>
  <path class="st0" d="M141.5,51.68c-1.79,6.47-8.23,10.76-14.45,12.4-16.72,4.42-34.51-3.25-50.79-6.31-11.96-2.25-20.06-2.06-29.89,5.61-3.43,2.67-9.03,9.12-13.22,9.67-8.59,1.13-8.3-12.28-8.37-17.77-4.8,3.79-9.16,8.45-14.5,11.52-6.9,3.97-13.86,3.31-11.04-6.46,2.51-8.67,15.87-22.78,25.31-23.13,1.32-.05,2.05.53,3.25.63,3.38-11.71,8.29-24.05,16.14-33.5,2.38-2.87,9.82-10.62,12.64-4.22,2.68,6.08-2.56,17.36-5.62,22.81-5.42,9.64-12.72,18.48-19.97,26.76-.77,5.7-1.92,13.37,0,18.9,1.34,3.85,3.2,2.27,5.59.42,7.83-6.07,10.44-11.97,21.52-14.14,22.51-4.39,59.18,19.92,78.72,2.59,1.97-1.75,3.15-3.71,4.69-5.79h0ZM31.88,45.65c5.45-7.48,11.14-14.87,15.71-22.96,2.31-4.1,8.01-15.77,6.1-20.16-.34-.79-.71-1.15-1.62-.92-2.06.52-6.97,8.09-8.17,10.15-6.04,10.31-9.81,21.94-12.45,33.57-.11.46.07.33.44.32h0ZM24.11,40.41c-6.66,1.08-19.09,16.5-20.36,23.02-.99,5.1,2.33,3.39,5.16,1.79,5.87-3.33,11.1-8.82,16.19-13.2.22-.47.34-.98.45-1.48.2-.98,1.07-6.5,1.02-7.16-.01-.15-.63-2.32-.7-2.44-.39-.66-1.09-.64-1.76-.53h0Z"/>
</svg>