<?xml version="1.0" encoding="UTF-8"?>
<svg id="Layer_1" xmlns="http://www.w3.org/2000/svg" version="1.1" viewBox="0 0 694.62 432.73">
  <!-- Generator: Adobe Illustrator 29.8.2, SVG Export Plug-In . SVG Version: 2.1.1 Build 3)  -->
  <path d="M648.44,284.95c-7.45,26.86-34.17,44.67-59.99,51.49-69.41,18.35-143.24-13.49-210.81-26.18-49.65-9.33-83.26-8.56-124.08,23.29-14.23,11.1-37.47,37.84-54.86,40.13-35.65,4.71-34.45-50.97-34.75-73.75-19.93,15.72-38.03,35.07-60.18,47.82-28.66,16.49-57.55,13.74-45.81-26.81,10.42-35.99,65.89-94.57,105.05-96,5.49-.2,8.49,2.18,13.51,2.6,14.01-48.6,34.4-99.84,66.98-139.06,9.89-11.9,40.76-44.09,52.47-17.53,11.13,25.24-10.62,72.05-23.33,94.68-22.48,40.01-52.78,76.7-82.91,111.09-3.18,23.67-7.99,55.49.01,78.46,5.56,15.98,13.28,9.44,23.2,1.74,32.48-25.19,43.34-49.7,89.32-58.68,93.44-18.24,245.66,82.68,326.73,10.73,8.17-7.25,13.08-15.4,19.46-24.03ZM193.43,259.94c22.63-31.06,46.26-61.73,65.19-95.32,9.6-17.03,33.24-65.46,25.32-83.67-1.42-3.26-2.93-4.76-6.74-3.8-8.53,2.17-28.94,33.6-33.93,42.12-25.09,42.8-40.73,91.05-51.68,139.34-.44,1.92.29,1.35,1.83,1.33ZM161.2,238.17c-27.66,4.48-79.23,68.49-84.49,95.53-4.12,21.17,9.68,14.07,21.41,7.42,24.36-13.81,46.06-36.63,67.22-54.78.91-1.94,1.42-4.06,1.85-6.15.84-4.05,4.43-26.97,4.22-29.7-.05-.61-2.63-9.65-2.9-10.11-1.63-2.74-4.51-2.66-7.32-2.21Z"/>
</svg>